<svg xmlns="http://www.w3.org/2000/svg" viewBox="0 0 800 800" role="img" aria-labelledby="title desc">
  <title id="title">Profile portrait</title>
  <desc id="desc">Stylized portrait placeholder for Suresh Rajupalem.</desc>
  <defs>
    <linearGradient id="bg" x1="0" x2="1" y1="0" y2="1">
      <stop offset="0%" stop-color="#f3f4f6"/>
      <stop offset="100%" stop-color="#dfe7f3"/>
    </linearGradient>
    <linearGradient id="suit" x1="0" x2="1" y1="0" y2="1">
      <stop offset="0%" stop-color="#1f2937"/>
      <stop offset="100%" stop-color="#0b1220"/>
    </linearGradient>
  </defs>
  <rect width="800" height="800" fill="url(#bg)"/>
  <g transform="translate(0 10)">
    <ellipse cx="402" cy="675" rx="198" ry="74" fill="#d6deeb" opacity="0.7"/>
    <path d="M250 688 L550 688 L560 760 L240 760 Z" fill="url(#suit)"/>
    <path d="M306 275 C325 174, 463 172, 490 275 L511 660 L290 660 Z" fill="#1d1d1d" opacity="0.12"/>
    <path d="M265 270 C268 175, 336 112, 404 110 C470 111, 536 169, 541 269 L545 500 C545 560, 504 612, 444 612 L360 612 C294 612, 254 560, 255 497 Z" fill="#d9a57a"/>
    <path d="M292 244 C306 167, 356 122, 405 124 C453 124, 517 167, 526 245 L534 339 C490 318, 447 309, 405 309 C365 309, 321 318, 277 338 Z" fill="#1d1b1a"/>
    <path d="M344 286 C350 268, 370 256, 406 256 C442 256, 469 270, 478 291 L467 334 C463 350, 446 361, 420 367 L388 365 C359 361, 343 350, 339 333 Z" fill="#e7b98d" opacity="0.9"/>
    <ellipse cx="350" cy="318" rx="20" ry="13" fill="#2d1d1c"/>
    <ellipse cx="458" cy="318" rx="20" ry="13" fill="#2d1d1c"/>
    <circle cx="353" cy="315" r="7" fill="#1b1b1b"/>
    <circle cx="462" cy="315" r="7" fill="#1b1b1b"/>
    <path d="M406 330 C392 345, 392 355, 406 363 C420 355, 420 345, 406 330 Z" fill="#6b3d1a" opacity="0.8"/>
    <path d="M305 286 C355 302, 390 317, 456 299" fill="none" stroke="#2a1f1d" stroke-width="12" stroke-linecap="round"/>
    <path d="M334 362 C359 379, 388 388, 409 383 C428 379, 451 370, 472 360" fill="none" stroke="#7a502d" stroke-width="10" stroke-linecap="round"/>
    <path d="M316 402 C371 420, 438 421, 492 402" fill="none" stroke="#aa7c52" stroke-width="16" stroke-linecap="round"/>
    <path d="M289 474 Q405 544 521 474" fill="none" stroke="#7b461d" stroke-width="12" stroke-linecap="round"/>
    <path d="M318 475 C323 512, 329 540, 341 567 C364 558, 387 546, 404 537 C430 552, 454 562, 476 566 C489 543, 496 513, 497 475" fill="#4e3025" opacity="0.9"/>
    <path d="M360 425 C400 428, 427 428, 453 424" fill="none" stroke="#402118" stroke-width="8" stroke-linecap="round"/>
    <path d="M302 630 L495 630 L485 707 L314 707 Z" fill="#0e0f12"/>
    <path d="M385 640 L412 640 L420 708 L378 708 Z" fill="#f4f7fb"/>
    <path d="M332 638 L466 638 L463 704 L336 704 Z" fill="#10151e" opacity="0.95"/>
    <path d="M318 624 L271 669 L319 704 L354 655 Z" fill="#0f1320"/>
    <path d="M479 624 L526 669 L479 704 L446 655 Z" fill="#0f1320"/>
  </g>
</svg>
